<svg xmlns="http://www.w3.org/2000/svg" width="922.249" height="267" viewBox="0 0 922.249 267">
  <g id="Grupo_10" data-name="Grupo 10" transform="translate(-29.434 -116.5)">
    <line id="Linha_1" data-name="Linha 1" x2="892.117" y2="3.947" transform="translate(44.5 250.396)" fill="none" stroke="#6a1b9a" stroke-linecap="round" stroke-width="30"/>
    <g id="Grupo_9" data-name="Grupo 9" transform="translate(-7 20)">
      <g id="Grupo_3" data-name="Grupo 3" transform="translate(97.848 164.704)">
        <ellipse id="Elipse_1" data-name="Elipse 1" cx="64" cy="65" rx="64" ry="65" transform="translate(0.152 0.296)" fill="#fff" stroke="#6a1b9a" stroke-width="14"/>
      </g>
      <path id="check" d="M32.256,64.555a4.3,4.3,0,0,1-6.082,0L1.89,40.267a6.448,6.448,0,0,1,0-9.122L4.931,28.1a6.449,6.449,0,0,1,9.123,0L29.215,43.265,70.183,2.3a6.449,6.449,0,0,1,9.123,0l3.041,3.042a6.448,6.448,0,0,1,0,9.122Zm0,0" transform="translate(117 197.034)" fill="#6a1b9a"/>
    </g>
    <g id="Grupo_8" data-name="Grupo 8" transform="translate(-13 18)">
      <g id="Grupo_4" data-name="Grupo 4" transform="translate(277.815 166.847)">
        <circle id="Elipse_1-2" data-name="Elipse 1" cx="65.5" cy="65.5" r="65.5" transform="translate(0.185 0.153)" fill="#fff" stroke="#6a1b9a" stroke-width="14"/>
      </g>
      <path id="check-2" data-name="check" d="M32.256,64.555a4.3,4.3,0,0,1-6.082,0L1.89,40.267a6.448,6.448,0,0,1,0-9.122L4.931,28.1a6.449,6.449,0,0,1,9.123,0L29.215,43.265,70.183,2.3a6.449,6.449,0,0,1,9.123,0l3.041,3.042a6.448,6.448,0,0,1,0,9.122Zm0,0" transform="translate(299 197.034)" fill="#6a1b9a"/>
    </g>
    <g id="Grupo_7" data-name="Grupo 7" transform="translate(-20 13)">
      <g id="Grupo_2" data-name="Grupo 2" transform="translate(462.068 173.274)">
        <circle id="Elipse_3" data-name="Elipse 3" cx="64.5" cy="64.5" r="64.5" transform="translate(-0.068 -0.274)" fill="#fff" stroke="#6a1b9a" stroke-width="14"/>
      </g>
      <g id="play" transform="translate(442.957 197.265)">
        <g id="Grupo_6" data-name="Grupo 6" transform="translate(61.52)">
          <path id="Caminho_9" data-name="Caminho 9" d="M117.18,32.575,72.738,2.15A10.849,10.849,0,0,0,66.9,0C63.576,0,61.52,2.667,61.52,7.131V72.889c0,4.459,2.053,7.121,5.368,7.121A10.758,10.758,0,0,0,72.7,77.855l44.463-30.424c2.859-1.96,4.443-4.6,4.443-7.429S120.043,34.534,117.18,32.575Z" transform="translate(-61.52)" fill="#6a1b9a"/>
        </g>
      </g>
    </g>
    <g id="Grupo_5" data-name="Grupo 5" transform="translate(642.035 129)">
      <circle id="Elipse_4" data-name="Elipse 4" cx="121" cy="121" r="121" transform="translate(-0.035)" fill="#fff" stroke="#6a1b9a" stroke-width="25"/>
      <path id="Caminho_8" data-name="Caminho 8" d="M777.633,358.344V480.76h61.117V389.14h30.609V480.76H900.04V358.344Z" transform="translate(-720.413 -300.253)" fill="#6a1b9a"/>
    </g>
  </g>
</svg>
